<svg width="63" height="63" viewBox="0 0 63 63" fill="none" xmlns="http://www.w3.org/2000/svg">
<path fill-rule="evenodd" clip-rule="evenodd" d="M0 31.25C0 48.5094 13.9906 62.5 31.25 62.5C48.5094 62.5 62.5 48.5094 62.5 31.25C62.5 13.9906 48.5094 0 31.25 0C13.9906 0 0 13.9906 0 31.25ZM31.2375 44.5063C31.8233 43.9202 32.1525 43.1255 32.1525 42.2969C32.1525 41.4682 31.8233 40.6735 31.2375 40.0875L25.5219 34.375L44.5094 34.375C45.3382 34.375 46.133 34.0458 46.7191 33.4597C47.3051 32.8737 47.6344 32.0788 47.6344 31.25C47.6344 30.4212 47.3051 29.6263 46.7191 29.0403C46.133 28.4542 45.3382 28.125 44.5094 28.125L25.5219 28.125L31.2375 22.4094C31.8235 21.823 32.1525 21.0279 32.1522 20.1989C32.1519 19.3699 31.8223 18.575 31.2359 17.9891C30.6496 17.4031 29.8544 17.0741 29.0255 17.0744C28.1965 17.0747 27.4016 17.4042 26.8156 17.9906L15.7688 29.0406C15.1829 29.6266 14.8538 30.4214 14.8538 31.25C14.8538 32.0786 15.1829 32.8734 15.7688 33.4594L26.8125 44.5063C27.1027 44.7968 27.4474 45.0273 27.8267 45.1846C28.2061 45.3418 28.6128 45.4228 29.0234 45.4228C29.4341 45.4228 29.8408 45.3418 30.2201 45.1846C30.5995 45.0273 30.9441 44.7968 31.2344 44.5063H31.2375Z" fill="black"/>
</svg>
