<svg width="63" height="63" viewBox="0 0 63 63" fill="none" xmlns="http://www.w3.org/2000/svg">
<path fill-rule="evenodd" clip-rule="evenodd" d="M62.5 31.25C62.5 13.9906 48.5094 0 31.25 0C13.9906 0 0 13.9906 0 31.25C0 48.5094 13.9906 62.5 31.25 62.5C48.5094 62.5 62.5 48.5094 62.5 31.25ZM31.2625 17.9937C30.6767 18.5798 30.3475 19.3745 30.3475 20.2031C30.3475 21.0318 30.6767 21.8265 31.2625 22.4125L36.9781 28.125H17.9906C17.1618 28.125 16.367 28.4542 15.7809 29.0403C15.1949 29.6263 14.8656 30.4212 14.8656 31.25C14.8656 32.0788 15.1949 32.8737 15.7809 33.4597C16.367 34.0458 17.1618 34.375 17.9906 34.375L36.9781 34.375L31.2625 40.0906C30.6765 40.677 30.3475 41.4721 30.3478 42.3011C30.3481 43.1301 30.6777 43.925 31.2641 44.5109C31.8504 45.0969 32.6456 45.4259 33.4745 45.4256C34.3035 45.4253 35.0984 45.0958 35.6844 44.5094L46.7312 33.4594C47.3171 32.8734 47.6462 32.0786 47.6462 31.25C47.6462 30.4214 47.3171 29.6266 46.7312 29.0406L35.6875 17.9937C35.3973 17.7032 35.0526 17.4727 34.6733 17.3154C34.2939 17.1582 33.8872 17.0772 33.4766 17.0772C33.0659 17.0772 32.6592 17.1582 32.2799 17.3154C31.9005 17.4727 31.5559 17.7032 31.2656 17.9937H31.2625Z" fill="black"/>
</svg>
