<svg width="57" height="57" viewBox="0 0 57 57" fill="none" xmlns="http://www.w3.org/2000/svg">
<path d="M31.6665 57H50.6665C52.3462 57 53.9571 56.3327 55.1448 55.145C56.3326 53.9573 56.9998 52.3464 56.9998 50.6667V6.33333C56.9998 4.65363 56.3326 3.04272 55.1448 1.85499C53.9571 0.66726 52.3462 0 50.6665 0H31.6665V57Z" fill="white"/>
<path fill-rule="evenodd" clip-rule="evenodd" d="M25.3333 0H6.33333C4.65363 0 3.04272 0.66726 1.85499 1.85499C0.66726 3.04272 0 4.65363 0 6.33333V50.6667C0 52.3464 0.66726 53.9573 1.85499 55.145C3.04272 56.3327 4.65363 57 6.33333 57H25.3333V0ZM18.0722 24.4055C18.649 23.8083 18.9682 23.0084 18.961 22.1781C18.9538 21.3478 18.6207 20.5535 18.0336 19.9664C17.4465 19.3793 16.6522 19.0462 15.8219 19.039C14.9916 19.0318 14.1917 19.351 13.5945 19.9278L7.26117 26.2612C6.66751 26.855 6.33401 27.6603 6.33401 28.5C6.33401 29.3397 6.66751 30.145 7.26117 30.7388L13.5945 37.0722C14.1917 37.649 14.9916 37.9682 15.8219 37.961C16.6522 37.9538 17.4465 37.6207 18.0336 37.0336C18.6207 36.4465 18.9538 35.6522 18.961 34.8219C18.9682 33.9916 18.649 33.1917 18.0722 32.5945L13.9777 28.5L18.0722 24.4055Z" fill="white"/>
</svg>
