<svg width="22" height="32" viewBox="0 0 22 32" fill="none" xmlns="http://www.w3.org/2000/svg">
<path d="M11 15.2C9.95808 15.2 8.95883 14.7786 8.22208 14.0284C7.48533 13.2783 7.07143 12.2609 7.07143 11.2C7.07143 10.1391 7.48533 9.12172 8.22208 8.37157C8.95883 7.62143 9.95808 7.2 11 7.2C12.0419 7.2 13.0412 7.62143 13.7779 8.37157C14.5147 9.12172 14.9286 10.1391 14.9286 11.2C14.9286 11.7253 14.827 12.2454 14.6295 12.7307C14.4321 13.216 14.1427 13.657 13.7779 14.0284C13.4131 14.3999 12.98 14.6945 12.5034 14.8955C12.0268 15.0965 11.5159 15.2 11 15.2ZM11 0C8.08262 0 5.28473 1.18 3.22183 3.2804C1.15893 5.38081 0 8.22958 0 11.2C0 19.6 11 32 11 32C11 32 22 19.6 22 11.2C22 8.22958 20.8411 5.38081 18.7782 3.2804C16.7153 1.18 13.9174 0 11 0Z" fill="white"/>
</svg>
